<svg width="23" height="23" viewBox="0 0 23 23" fill="none" xmlns="http://www.w3.org/2000/svg">
<path d="M10.4439 2.2357H8.56751C3.87643 2.2357 2 4.11213 2 8.80321V14.4325C2 19.1236 3.87643 21 8.56751 21H14.1968C18.8879 21 20.7643 19.1236 20.7643 14.4325V12.5561" stroke="white" stroke-width="2.04238" stroke-linecap="round" stroke-linejoin="round"/>
<path d="M15.1726 3.19269L7.77946 10.5858C7.498 10.8673 7.21654 11.4208 7.16024 11.8243L6.75681 14.6483C6.6067 15.6709 7.32912 16.384 8.35178 16.2433L11.1758 15.8398C11.5699 15.7835 12.1234 15.5021 12.4142 15.2206L19.8074 7.82747C21.0834 6.5515 21.6838 5.06912 19.8074 3.19269C17.931 1.31626 16.4486 1.91671 15.1726 3.19269Z" stroke="white" stroke-width="2.04238" stroke-miterlimit="10" stroke-linecap="round" stroke-linejoin="round"/>
<path d="M14.1124 4.25276C14.741 6.4951 16.4954 8.24956 18.7471 8.88754" stroke="white" stroke-width="2.04238" stroke-miterlimit="10" stroke-linecap="round" stroke-linejoin="round"/>
</svg>
